<mxfile host="app.diagrams.net" agent="Mozilla/5.0 (Windows NT 10.0; Win64; x64) AppleWebKit/537.36 (KHTML, like Gecko) Chrome/128.0.0.0 Safari/537.36" version="24.7.7">
  <diagram name="Page-1" id="5f9eM6vu46cOGLHLXNoh">
    <mxGraphModel dx="1434" dy="780" grid="1" gridSize="10" guides="1" tooltips="1" connect="1" arrows="1" fold="1" page="1" pageScale="1" pageWidth="8500" pageHeight="11000" math="0" shadow="0">
      <root>
        <mxCell id="0" />
        <mxCell id="1" parent="0" />
        <mxCell id="gilJa18m710hVi9TsL---1" value="&lt;font style=&quot;font-size: 24px;&quot;&gt;&lt;b style=&quot;&quot;&gt;&lt;u style=&quot;&quot;&gt;pEntity&lt;/u&gt;&lt;/b&gt;&lt;/font&gt;&lt;div&gt;&lt;font style=&quot;font-size: 14px;&quot;&gt;All Units will be children of this object&lt;/font&gt;&lt;/div&gt;&lt;div&gt;&lt;font style=&quot;font-size: 14px;&quot;&gt;&lt;br&gt;&lt;/font&gt;&lt;/div&gt;&lt;div&gt;&lt;font style=&quot;font-size: 14px;&quot;&gt;Handles:&lt;/font&gt;&lt;/div&gt;&lt;div style=&quot;text-align: left;&quot;&gt;&lt;ol&gt;&lt;li&gt;Dealing Damage&lt;/li&gt;&lt;li&gt;Healing&lt;/li&gt;&lt;li&gt;Spawning&lt;/li&gt;&lt;/ol&gt;&lt;/div&gt;" style="rounded=1;whiteSpace=wrap;html=1;align=center;" vertex="1" parent="1">
          <mxGeometry x="560" y="40" width="280" height="160" as="geometry" />
        </mxCell>
        <mxCell id="gilJa18m710hVi9TsL---2" value="" style="endArrow=classic;html=1;rounded=0;exitX=0.25;exitY=1;exitDx=0;exitDy=0;" edge="1" parent="1" source="gilJa18m710hVi9TsL---1">
          <mxGeometry width="50" height="50" relative="1" as="geometry">
            <mxPoint x="630" y="260" as="sourcePoint" />
            <mxPoint x="440" y="360" as="targetPoint" />
          </mxGeometry>
        </mxCell>
        <mxCell id="gilJa18m710hVi9TsL---3" value="" style="endArrow=classic;html=1;rounded=0;exitX=0.75;exitY=1;exitDx=0;exitDy=0;" edge="1" parent="1" source="gilJa18m710hVi9TsL---1">
          <mxGeometry width="50" height="50" relative="1" as="geometry">
            <mxPoint x="690" y="420" as="sourcePoint" />
            <mxPoint x="960" y="360" as="targetPoint" />
          </mxGeometry>
        </mxCell>
        <mxCell id="gilJa18m710hVi9TsL---4" value="&lt;b style=&quot;font-size: 24px;&quot;&gt;&lt;u&gt;oControllerParent&lt;/u&gt;&lt;/b&gt;&lt;div&gt;&lt;div&gt;&lt;font style=&quot;font-size: 14px;&quot;&gt;All the Players Units will be children of this object&lt;/font&gt;&lt;/div&gt;&lt;div&gt;&lt;font style=&quot;font-size: 14px;&quot;&gt;&lt;br&gt;&lt;/font&gt;&lt;/div&gt;&lt;div&gt;&lt;font style=&quot;font-size: 14px;&quot;&gt;Handles:&lt;/font&gt;&lt;/div&gt;&lt;div style=&quot;text-align: left;&quot;&gt;&lt;ol&gt;&lt;li&gt;&lt;br&gt;&lt;/li&gt;&lt;/ol&gt;&lt;/div&gt;&lt;/div&gt;" style="rounded=1;whiteSpace=wrap;html=1;align=center;" vertex="1" parent="1">
          <mxGeometry x="300" y="360" width="280" height="160" as="geometry" />
        </mxCell>
        <mxCell id="gilJa18m710hVi9TsL---5" value="&lt;b style=&quot;font-size: 24px;&quot;&gt;&lt;u&gt;oEnemyParent&lt;/u&gt;&lt;/b&gt;&lt;div&gt;&lt;div&gt;&lt;font style=&quot;font-size: 14px;&quot;&gt;All the Players Units will be children of this object&lt;/font&gt;&lt;/div&gt;&lt;div&gt;&lt;font style=&quot;font-size: 14px;&quot;&gt;&lt;br&gt;&lt;/font&gt;&lt;/div&gt;&lt;div&gt;&lt;font style=&quot;font-size: 14px;&quot;&gt;Handles:&lt;/font&gt;&lt;/div&gt;&lt;div style=&quot;text-align: left;&quot;&gt;&lt;ol&gt;&lt;li&gt;Ai functionality&lt;/li&gt;&lt;li&gt;Which team they are on&lt;/li&gt;&lt;/ol&gt;&lt;/div&gt;&lt;/div&gt;" style="rounded=1;whiteSpace=wrap;html=1;align=center;" vertex="1" parent="1">
          <mxGeometry x="820" y="360" width="280" height="160" as="geometry" />
        </mxCell>
        <mxCell id="gilJa18m710hVi9TsL---6" value="" style="endArrow=classic;html=1;rounded=0;exitX=0.5;exitY=1;exitDx=0;exitDy=0;entryX=0.25;entryY=0;entryDx=0;entryDy=0;" edge="1" parent="1" source="gilJa18m710hVi9TsL---4" target="gilJa18m710hVi9TsL---8">
          <mxGeometry width="50" height="50" relative="1" as="geometry">
            <mxPoint x="530" y="710" as="sourcePoint" />
            <mxPoint x="580" y="660" as="targetPoint" />
          </mxGeometry>
        </mxCell>
        <mxCell id="gilJa18m710hVi9TsL---7" value="" style="endArrow=classic;html=1;rounded=0;exitX=0.5;exitY=1;exitDx=0;exitDy=0;entryX=0.75;entryY=0;entryDx=0;entryDy=0;" edge="1" parent="1" source="gilJa18m710hVi9TsL---5" target="gilJa18m710hVi9TsL---8">
          <mxGeometry width="50" height="50" relative="1" as="geometry">
            <mxPoint x="950" y="710" as="sourcePoint" />
            <mxPoint x="1000" y="660" as="targetPoint" />
          </mxGeometry>
        </mxCell>
        <mxCell id="gilJa18m710hVi9TsL---8" value="&lt;font style=&quot;font-size: 24px;&quot;&gt;&lt;b style=&quot;&quot;&gt;&lt;u style=&quot;&quot;&gt;oBuilderParent&lt;/u&gt;&lt;/b&gt;&lt;/font&gt;&lt;div&gt;&lt;font style=&quot;font-size: 14px;&quot;&gt;All Builders Units will be children of this object&lt;/font&gt;&lt;/div&gt;&lt;div&gt;&lt;font style=&quot;font-size: 14px;&quot;&gt;&lt;br&gt;&lt;/font&gt;&lt;/div&gt;&lt;div&gt;&lt;font style=&quot;font-size: 14px;&quot;&gt;Handles:&lt;/font&gt;&lt;/div&gt;&lt;div style=&quot;text-align: left;&quot;&gt;&lt;ol&gt;&lt;li&gt;Building&lt;/li&gt;&lt;li&gt;Gathering&lt;/li&gt;&lt;/ol&gt;&lt;/div&gt;" style="rounded=1;whiteSpace=wrap;html=1;align=center;" vertex="1" parent="1">
          <mxGeometry x="560" y="670" width="280" height="160" as="geometry" />
        </mxCell>
        <mxCell id="gilJa18m710hVi9TsL---9" value="" style="endArrow=classic;html=1;rounded=0;exitX=0.5;exitY=1;exitDx=0;exitDy=0;" edge="1" parent="1" source="gilJa18m710hVi9TsL---8">
          <mxGeometry width="50" height="50" relative="1" as="geometry">
            <mxPoint x="760" y="1040" as="sourcePoint" />
            <mxPoint x="700" y="960" as="targetPoint" />
          </mxGeometry>
        </mxCell>
        <mxCell id="gilJa18m710hVi9TsL---10" value="oBuilder" style="rounded=1;whiteSpace=wrap;html=1;" vertex="1" parent="1">
          <mxGeometry x="640" y="960" width="120" height="40" as="geometry" />
        </mxCell>
        <mxCell id="gilJa18m710hVi9TsL---11" value="Will have 1 for each type of unit" style="rounded=1;whiteSpace=wrap;html=1;" vertex="1" parent="1">
          <mxGeometry x="920" y="720" width="120" height="60" as="geometry" />
        </mxCell>
        <mxCell id="gilJa18m710hVi9TsL---13" value="" style="endArrow=classic;startArrow=classic;html=1;rounded=0;exitX=1;exitY=0.5;exitDx=0;exitDy=0;" edge="1" parent="1" source="gilJa18m710hVi9TsL---8" target="gilJa18m710hVi9TsL---11">
          <mxGeometry width="50" height="50" relative="1" as="geometry">
            <mxPoint x="750" y="680" as="sourcePoint" />
            <mxPoint x="800" y="630" as="targetPoint" />
          </mxGeometry>
        </mxCell>
      </root>
    </mxGraphModel>
  </diagram>
</mxfile>
